<svg width="25" height="24" viewBox="0 0 25 24" fill="none" xmlns="http://www.w3.org/2000/svg">
<mask id="mask0_154_8" style="mask-type:luminance" maskUnits="userSpaceOnUse" x="0" y="0" width="25" height="24">
<path d="M24.5454 0H0.450562V24H24.5454V0Z" fill="white"/>
</mask>
<g mask="url(#mask0_154_8)">
<path d="M3.58789 1.27512C2.33295 2.37512 1.95647 3.22512 1.95647 4.92512C1.95647 6.00012 2.13216 6.65012 2.58394 7.45012L3.18631 8.52512L2.58394 8.75012C1.60508 9.12512 0.927418 10.4251 1.00271 11.7501L1.07801 12.8751L2.88513 12.8501H4.66714L4.81773 13.6001C4.89303 14.0251 5.64599 15.5001 6.47425 16.8501C7.77939 19.0001 7.98018 19.5251 7.98018 20.5751C7.98018 21.6251 8.10567 21.9251 8.83354 22.6501L9.6869 23.5001H12.4729C15.1835 23.5001 15.2839 23.4751 16.0369 22.8001C16.7146 22.2001 16.8652 21.8251 17.0158 20.6001C17.1663 19.4751 17.5177 18.6001 18.4966 16.8751C19.1994 15.6251 19.9021 14.2251 20.0527 13.7251L20.3288 12.8501H22.1359L23.9179 12.8751L23.9932 11.7501C24.0685 10.4251 23.3909 9.12512 22.412 8.75012L21.8096 8.52512L22.412 7.45012C23.1399 6.20012 23.2654 3.90012 22.6881 2.77512C22.1861 1.82512 20.63 0.500117 20.0276 0.500117C19.6511 0.500117 19.5256 0.675116 19.5256 1.22512C19.5256 1.62512 19.626 2.25012 19.7766 2.60012C20.0778 3.42512 19.6762 4.35012 18.848 4.72512C17.8691 5.17512 16.2879 5.05012 15.5851 4.50012C15.0329 4.07512 14.5561 4.00012 12.498 4.00012C10.4399 4.00012 9.96299 4.07512 9.41082 4.50012C8.70805 5.05012 7.12683 5.17512 6.14797 4.72512C5.31971 4.35012 4.91813 3.42512 5.21931 2.60012C5.3699 2.25012 5.4703 1.62512 5.4703 1.22512C5.4703 0.250116 4.76753 0.250119 3.58789 1.27512ZM4.91812 5.05012C5.54559 5.70012 5.94718 5.85012 7.07662 5.95012C7.85469 6.00012 8.48216 6.12512 8.48216 6.22512C8.48216 6.67512 7.5535 7.60012 6.77544 7.92512C5.94718 8.27512 5.87188 8.25012 4.99342 7.55012C3.53769 6.37512 2.88512 5.27512 3.03571 4.17512C3.11101 3.65012 3.31181 3.05012 3.5126 2.82512C3.78868 2.47512 3.86398 2.52512 3.98947 3.35012C4.08987 3.92512 4.44125 4.60012 4.91812 5.05012ZM21.9351 3.87512C22.1359 5.00012 21.91 5.62512 20.8308 6.80012C19.5758 8.17512 19.1994 8.32512 18.1954 7.90012C17.4173 7.60012 16.5138 6.67512 16.5138 6.22512C16.5138 6.12512 17.1413 6.00012 17.9444 5.95012C19.1743 5.85012 19.4503 5.72512 20.2033 4.92512C20.7806 4.30012 21.0316 3.77512 21.0316 3.22512C21.0316 2.55012 21.0818 2.47512 21.408 2.75012C21.6088 2.92512 21.8347 3.42512 21.9351 3.87512ZM15.5851 6.50012C16.3883 8.12512 17.0158 8.65012 18.4715 9.02512C19.4001 9.27512 19.5256 9.40012 19.5256 10.0251C19.5256 10.6751 19.3248 10.8501 17.593 11.7251C14.9576 13.0251 14.6565 13.4001 14.5561 15.4751C14.4557 17.2251 14.782 18.3001 15.6102 18.9751C16.1624 19.4251 16.1122 20.4001 15.5098 21.0001C15.0831 21.4251 14.6816 21.5001 12.498 21.5001C10.3144 21.5001 9.91279 21.4251 9.48611 21.0001C8.88374 20.4001 8.83354 19.4251 9.38572 18.9751C10.214 18.3001 10.5403 17.2251 10.4399 15.4751C10.3144 13.3751 9.91279 12.8501 7.30251 11.6251C5.64599 10.8501 5.4703 10.7001 5.4703 10.0251C5.4703 9.42512 5.5958 9.30012 6.24836 9.15012C7.6037 8.90012 8.65785 8.05012 9.26022 6.80012C10.1387 4.92512 10.0634 4.97512 12.5984 5.05012L14.8824 5.12512L15.5851 6.50012ZM4.29065 10.0001C4.08986 10.7501 3.58789 11.0501 2.65923 10.9501L1.83097 10.8751L2.50864 10.1751C3.3369 9.35012 4.49144 9.22512 4.29065 10.0001ZM22.4873 10.1751L23.165 10.8751L22.3367 10.9501C21.4081 11.0501 20.9061 10.7501 20.7053 10.0001C20.5045 9.22512 21.659 9.35012 22.4873 10.1751ZM6.95113 12.5001C7.5535 12.8001 7.98018 13.2251 8.08058 13.6001C8.15587 13.9501 8.50726 14.4251 8.85864 14.6501C9.36062 14.9751 9.48611 15.2751 9.48611 16.0501C9.48611 16.6001 9.36062 17.2751 9.21002 17.5501C8.95903 18.0251 8.88374 17.9751 8.25627 16.8501C7.87979 16.1751 7.22721 15.0501 6.80053 14.3751C5.99737 13.1001 5.5707 12.0001 5.84678 12.0001C5.92208 12.0001 6.42405 12.2251 6.95113 12.5001ZM18.6974 13.4251C18.346 14.0751 17.6181 15.4001 17.066 16.3251C16.1373 17.9001 16.0369 18.0001 15.7859 17.5501C15.6353 17.2501 15.5098 16.6001 15.5098 16.0501C15.5098 15.2751 15.6353 14.9751 16.1373 14.6501C16.4887 14.4251 16.8401 13.9501 16.9154 13.6001C17.0408 13.1501 17.4173 12.8001 18.1201 12.4751C18.6723 12.2251 19.1742 12.0751 19.2244 12.1251C19.2746 12.1501 19.0237 12.7501 18.6974 13.4251Z" fill="#960000"/>
<path d="M12.1717 9.15042C12.0713 9.25042 11.996 9.57542 11.996 9.87542C11.996 10.6504 11.4689 11.0254 10.49 10.9504C9.46099 10.8504 9.21 11.4004 10.1136 11.8004C10.6155 12.0254 10.9669 12.0254 11.6195 11.7754C12.3223 11.5254 12.6736 11.5254 13.3764 11.7754C14.029 12.0254 14.3804 12.0254 14.8823 11.8004C15.811 11.3754 15.5349 10.8504 14.4556 10.9504C13.5019 11.0254 13.1003 10.7004 12.9497 9.77542C12.8744 9.15042 12.4728 8.85042 12.1717 9.15042Z" fill="#960000"/>
<path d="M10.0885 19.3749C9.98809 19.5749 10.0634 19.9249 10.2391 20.1249C10.6909 20.6499 11.494 20.5999 11.494 20.0499C11.494 19.1499 10.3646 18.6249 10.0885 19.3749Z" fill="#960000"/>
<path d="M13.8031 19.3001C13.3262 19.7751 13.4266 20.5001 13.9788 20.5001C14.5812 20.5001 15.1083 19.8751 14.9075 19.3751C14.7318 18.9251 14.2298 18.8751 13.8031 19.3001Z" fill="#960000"/>
</g>
</svg>
