<svg width="254" height="65" viewBox="0 0 254 65" fill="none" xmlns="http://www.w3.org/2000/svg">
<g clip-path="url(#clip0_16_28)">
<path d="M15.624 37V9.5H19.8281V33.4375H25.1459V37H15.624ZM26.7528 37L30.6902 9.5H36.2433L40.4317 37H36.51L35.8512 32.0938H31.3961L30.8001 37H26.7528ZM31.804 28.7344H35.4119L33.5609 14.9219H33.4982L31.804 28.7344ZM50.6419 37V9.5H56.9793C58.0775 9.5 58.9872 9.66667 59.7089 10C60.4409 10.3333 61.016 10.8281 61.4344 11.4844C61.8527 12.1406 62.1507 12.9531 62.3285 13.9219C62.5063 14.8802 62.5953 15.9896 62.5953 17.25V17.8281C62.5953 19.599 62.4383 21.1094 62.1246 22.3594C61.8213 23.599 61.2722 24.5417 60.4775 25.1875C59.6827 25.8333 58.5637 26.1562 57.1205 26.1562H54.8459V37H50.6419ZM54.8459 22.7031H56.2891C56.9062 22.7031 57.3663 22.5469 57.6696 22.2344C57.9729 21.9219 58.1715 21.4062 58.2657 20.6875C58.3702 19.9583 58.4225 18.9896 58.4225 17.7812V17.25C58.4121 15.7604 58.2814 14.6354 58.0304 13.875C57.7794 13.1042 57.2094 12.7188 56.3205 12.7188H54.8459V22.7031ZM66.414 37V9.5H75.6692V13.1094H70.618V21.1094H75.4182V24.6406H70.618V33.3906H75.8575V37H66.414ZM81.3704 37V13.125H78.1389V9.5H88.6647V13.125H85.5588V37H81.3704ZM92.0914 37V9.5H96.2954V37H92.0914ZM102.938 37V13.125H99.7064V9.5H110.232V13.125H107.126V37H102.938ZM113.565 37V9.5H122.82V13.1094H117.769V21.1094H122.569V24.6406H117.769V33.3906H123.008V37H113.565ZM133.814 37V9.5H143.069V13.1094H138.018V21.1094H142.818V24.6406H138.018V33.3906H143.258V37H133.814ZM135.994 7.3125L137.469 0.859375H141.627L138.442 7.3125H135.994ZM152.99 37.3125C151.652 37.3125 150.538 37.0052 149.649 36.3906C148.761 35.776 148.091 34.8802 147.641 33.7031C147.202 32.5156 146.983 31.0833 146.983 29.4062V17.4219C146.983 16.1615 147.087 15.026 147.296 14.0156C147.506 13.0052 147.845 12.1406 148.316 11.4219C148.787 10.7031 149.414 10.151 150.198 9.76562C150.982 9.38021 151.95 9.1875 153.1 9.1875C154.146 9.1875 155.035 9.35938 155.767 9.70312C156.509 10.0365 157.111 10.5208 157.571 11.1562C158.041 11.7917 158.382 12.5625 158.59 13.4688C158.81 14.3646 158.92 15.375 158.92 16.5V20.2812H154.857V16.7656C154.857 15.4115 154.742 14.4167 154.512 13.7812C154.282 13.1354 153.822 12.8125 153.132 12.8125C152.368 12.8125 151.856 13.1615 151.594 13.8594C151.343 14.5469 151.217 15.5104 151.217 16.75V29.5938C151.217 30.5521 151.271 31.3385 151.375 31.9531C151.489 32.5573 151.678 33.0052 151.939 33.2969C152.201 33.5781 152.567 33.7188 153.038 33.7188C153.748 33.7188 154.229 33.3854 154.48 32.7188C154.731 32.0521 154.857 30.9948 154.857 29.5469V25.6094H158.983V29.5C158.983 31.2396 158.779 32.6927 158.371 33.8594C157.963 35.0156 157.314 35.8802 156.426 36.4531C155.547 37.026 154.402 37.3125 152.99 37.3125ZM163.508 37V9.5H167.711V20.625H171.476V9.5H175.681V37H171.476V24.2188H167.711V37H163.508ZM186.59 37.3125C185.157 37.3125 183.985 37.0104 183.076 36.4062C182.176 35.8021 181.513 34.9062 181.084 33.7188C180.655 32.5312 180.44 31.0625 180.44 29.3125V16.7344C180.44 15.151 180.649 13.7969 181.068 12.6719C181.487 11.5469 182.15 10.6823 183.06 10.0781C183.97 9.47396 185.162 9.17188 186.637 9.17188C187.745 9.17188 188.681 9.34375 189.445 9.6875C190.208 10.0312 190.825 10.5312 191.295 11.1875C191.766 11.8333 192.106 12.625 192.315 13.5625C192.535 14.4896 192.644 15.5469 192.644 16.7344V29.3125C192.644 31.0625 192.436 32.5312 192.017 33.7188C191.609 34.9062 190.961 35.8021 190.072 36.4062C189.183 37.0104 188.022 37.3125 186.59 37.3125ZM186.59 33.6875C187.113 33.6875 187.504 33.5312 187.766 33.2188C188.027 32.9062 188.2 32.4323 188.283 31.7969C188.378 31.151 188.425 30.3385 188.425 29.3594V16.5469C188.425 15.349 188.31 14.4271 188.079 13.7812C187.861 13.125 187.379 12.7969 186.637 12.7969C185.873 12.7969 185.356 13.1146 185.084 13.75C184.812 14.375 184.676 15.3021 184.676 16.5312V29.3594C184.676 30.3594 184.717 31.1823 184.802 31.8281C184.895 32.4635 185.079 32.9323 185.351 33.2344C185.633 33.5365 186.045 33.6875 186.59 33.6875ZM197.436 37V9.5H203.773C204.872 9.5 205.781 9.66667 206.503 10C207.235 10.3333 207.81 10.8281 208.229 11.4844C208.646 12.1406 208.945 12.9531 209.122 13.9219C209.3 14.8802 209.389 15.9896 209.389 17.25V17.8281C209.389 19.599 209.233 21.1094 208.919 22.3594C208.615 23.599 208.066 24.5417 207.272 25.1875C206.477 25.8333 205.357 26.1562 203.915 26.1562H201.64V37H197.436ZM201.64 22.7031H203.084C203.7 22.7031 204.161 22.5469 204.464 22.2344C204.767 21.9219 204.966 21.4062 205.06 20.6875C205.165 19.9583 205.217 18.9896 205.217 17.7812V17.25C205.206 15.7604 205.075 14.6354 204.824 13.875C204.573 13.1042 204.003 12.7188 203.115 12.7188H201.64V22.7031ZM213.208 37V9.5H219.545C220.644 9.5 221.553 9.66667 222.275 10C223.007 10.3333 223.582 10.8281 224.001 11.4844C224.419 12.1406 224.717 12.9531 224.894 13.9219C225.072 14.8802 225.161 15.9896 225.161 17.25V17.8281C225.161 19.599 225.005 21.1094 224.691 22.3594C224.387 23.599 223.838 24.5417 223.044 25.1875C222.249 25.8333 221.13 26.1562 219.687 26.1562H217.412V37H213.208ZM217.412 22.7031H218.856C219.472 22.7031 219.933 22.5469 220.236 22.2344C220.539 21.9219 220.738 21.4062 220.831 20.6875C220.937 19.9583 220.989 18.9896 220.989 17.7812V17.25C220.978 15.7604 220.847 14.6354 220.596 13.875C220.346 13.1042 219.775 12.7188 218.887 12.7188H217.412V22.7031ZM228.98 37V9.5H238.236V13.1094H233.184V21.1094H237.985V24.6406H233.184V33.3906H238.424V37H228.98Z" fill="white"/>
<path d="M0.617715 58.5L0.573596 57.7676L1.5148 57.5332C1.5148 57.4746 1.5148 57.3623 1.5148 57.1963C1.5246 57.0205 1.52951 56.8203 1.52951 56.5957C1.53931 56.3711 1.54422 56.1465 1.54422 55.9219C1.55402 55.6875 1.55892 55.4727 1.55892 55.2773V53.124C1.55892 52.7236 1.55402 52.3623 1.54422 52.04C1.53441 51.708 1.5197 51.4395 1.50009 51.2344C1.4903 51.0293 1.47559 50.9072 1.45598 50.8682L0.514771 50.6338L0.55889 49.9014H4.35313C5.48061 49.9014 6.31397 50.082 6.8532 50.4434C7.39243 50.7949 7.66206 51.3564 7.66206 52.1279C7.66206 52.6064 7.51499 53.0361 7.22086 53.417C6.93654 53.7881 6.53457 54.0811 6.01494 54.2959C5.50512 54.5107 4.91687 54.6182 4.25018 54.6182H3.27956V53.7686H3.95605C4.44626 53.7686 4.83844 53.6221 5.13256 53.3291C5.43649 53.0264 5.58846 52.626 5.58846 52.1279C5.58846 51.6689 5.461 51.3223 5.2061 51.0879C4.96099 50.8438 4.59823 50.7217 4.11782 50.7217H3.55898C3.54918 50.751 3.53937 50.834 3.52956 50.9707C3.52956 51.0977 3.52956 51.2686 3.52956 51.4834C3.52956 51.6982 3.52956 51.9375 3.52956 52.2012C3.52956 52.4551 3.52956 52.7236 3.52956 53.0068V55.2773C3.52956 55.5312 3.52956 55.8096 3.52956 56.1123C3.53937 56.415 3.54918 56.6982 3.55898 56.9619C3.56879 57.2158 3.57859 57.4062 3.5884 57.5332L4.41195 57.7676L4.36784 58.5H0.617715ZM8.29442 58.6758C7.74538 58.6758 7.25517 58.5879 6.82379 58.4121C6.4022 58.2363 6.01984 57.9629 5.6767 57.5918C5.34336 57.2207 5.03942 56.752 4.7649 56.1855L3.94135 54.3838L5.55905 54.0029L7.3091 56.4346C7.51499 56.7178 7.71598 56.957 7.91206 57.1523C8.11795 57.3477 8.32874 57.5088 8.54443 57.6357C8.76013 57.7529 8.99052 57.8457 9.23563 57.9141L9.22092 58.5879C9.06405 58.6172 8.90719 58.6367 8.75032 58.6465C8.60326 58.666 8.45129 58.6758 8.29442 58.6758ZM18.4053 58.5879C18.121 58.5684 17.7877 58.5488 17.4053 58.5293C17.023 58.5098 16.6749 58.5 16.3612 58.5H11.3021L11.2581 57.7676L12.1993 57.5332C12.2189 57.4844 12.2336 57.3574 12.2434 57.1523C12.2629 56.9473 12.2777 56.6836 12.2875 56.3613C12.2973 56.0391 12.3022 55.6777 12.3022 55.2773V53.124C12.3022 52.7236 12.2973 52.3574 12.2875 52.0254C12.2777 51.6934 12.2629 51.4297 12.2434 51.2344C12.2336 51.0293 12.2189 50.9072 12.1993 50.8682L11.2581 50.6338L11.3021 49.9014H15.8317C16.0278 49.9014 16.2631 49.9014 16.5377 49.9014C16.822 49.8916 17.0965 49.8818 17.3612 49.8721C17.6357 49.8525 17.8661 49.8379 18.0523 49.8281L18.4495 51.9961L17.5964 52.1133L17.0524 50.8242C16.915 50.7949 16.7974 50.7754 16.6994 50.7656C16.6013 50.7559 16.4935 50.751 16.3758 50.751H15.2581C15.0719 50.751 14.8905 50.7559 14.7141 50.7656C14.5473 50.7656 14.4101 50.7754 14.3023 50.7949C14.3023 50.873 14.2973 50.9902 14.2875 51.1465C14.2875 51.3027 14.2827 51.5029 14.2728 51.7471C14.2728 51.9912 14.2728 52.2744 14.2728 52.5967V55.6875C14.2728 56 14.2728 56.2783 14.2728 56.5225C14.2827 56.7666 14.2875 56.9717 14.2875 57.1377C14.2973 57.3037 14.3023 57.4307 14.3023 57.5186C14.4788 57.5381 14.6601 57.5527 14.8464 57.5625C15.0425 57.5723 15.2875 57.5771 15.5817 57.5771H16.3758C16.621 57.5771 16.8023 57.5771 16.92 57.5771C17.0475 57.5674 17.1405 57.5576 17.1994 57.5479C17.268 57.5381 17.3415 57.5283 17.42 57.5186L18.2288 56.0537L19.0671 56.2148L18.4053 58.5879ZM16.5229 55.5703L16.3906 54.5889C16.3219 54.5791 16.2092 54.5742 16.0523 54.5742C15.9053 54.5645 15.7386 54.5596 15.5523 54.5596H14.7728C14.5964 54.5596 14.4346 54.5645 14.2875 54.5742C14.1405 54.584 14.0278 54.5938 13.9493 54.6035V53.5635C14.0278 53.5732 14.1405 53.583 14.2875 53.5928C14.4346 53.6025 14.5964 53.6074 14.7728 53.6074H15.5523C15.7386 53.6074 15.9053 53.6074 16.0523 53.6074C16.2092 53.5977 16.3219 53.5928 16.3906 53.5928L16.5229 52.6113H17.3464V55.5703H16.5229ZM24.3396 58.6318C23.9279 58.6318 23.472 58.5732 22.9719 58.4561C22.4818 58.3389 22.0601 58.1826 21.7072 57.9873L21.6336 55.8193L22.5748 55.7607L23.0749 57.2695C23.271 57.3965 23.5014 57.499 23.7661 57.5771C24.0406 57.6455 24.3004 57.6797 24.5455 57.6797C24.9867 57.6797 25.32 57.5869 25.5455 57.4014C25.7808 57.2158 25.8985 56.9668 25.8985 56.6543C25.8985 56.3125 25.7955 56.0391 25.5897 55.834C25.3936 55.6289 25.1338 55.4531 24.8102 55.3066C24.4867 55.1602 24.1435 55.0186 23.7808 54.8818C23.418 54.7354 23.0749 54.5645 22.7513 54.3691C22.4278 54.1641 22.1631 53.9053 21.9572 53.5928C21.7611 53.2705 21.663 52.8652 21.663 52.377C21.663 51.8496 21.8101 51.3906 22.1043 51C22.4082 50.5996 22.8297 50.292 23.3691 50.0771C23.918 49.8525 24.5504 49.7402 25.2661 49.7402C25.4916 49.7402 25.7319 49.7549 25.9868 49.7842C26.2514 49.8135 26.5064 49.8623 26.7515 49.9307C26.9965 49.9893 27.2123 50.0576 27.3985 50.1357L27.5604 52.2744L26.6338 52.333L26.1633 50.8975C25.8593 50.7412 25.5112 50.6631 25.119 50.6631C24.7171 50.6631 24.3837 50.7656 24.119 50.9707C23.8641 51.166 23.7367 51.4443 23.7367 51.8057C23.7367 52.1279 23.8396 52.3965 24.0455 52.6113C24.2514 52.8164 24.5161 52.9971 24.8396 53.1533C25.1632 53.2998 25.5064 53.4463 25.8691 53.5928C26.2417 53.7393 26.5897 53.915 26.9132 54.1201C27.2466 54.3154 27.5162 54.5645 27.7221 54.8672C27.928 55.1699 28.0309 55.5557 28.0309 56.0244C28.0309 56.5225 27.8741 56.9717 27.5604 57.3721C27.2564 57.7627 26.825 58.0703 26.2662 58.2949C25.7171 58.5195 25.075 58.6318 24.3396 58.6318ZM38.2741 49.8281L38.6125 52.4209L37.7153 52.4941L37.1271 50.8096C37.029 50.79 36.9212 50.7803 36.8035 50.7803C36.6957 50.7705 36.5781 50.7656 36.4506 50.7656H35.9652C35.877 50.7656 35.7741 50.7656 35.6564 50.7656C35.5486 50.7656 35.4653 50.7754 35.4064 50.7949C35.4064 50.8535 35.4015 51.0342 35.3917 51.3369C35.382 51.6396 35.3721 52.001 35.3623 52.4209C35.3623 52.8311 35.3623 53.2559 35.3623 53.6953V55.0576C35.3623 55.6045 35.3672 56.1025 35.377 56.5518C35.3966 56.9912 35.4114 57.3184 35.4211 57.5332L36.7006 57.7383L36.6565 58.5H32.0828L32.0387 57.7383L33.3181 57.5332C33.328 57.3184 33.3377 56.9912 33.3475 56.5518C33.3574 56.1025 33.3623 55.6045 33.3623 55.0576V53.6953C33.3623 53.2559 33.3574 52.8311 33.3475 52.4209C33.3475 52.001 33.3475 51.6396 33.3475 51.3369C33.3475 51.0342 33.3426 50.8535 33.3329 50.7949C33.274 50.7754 33.1858 50.7656 33.0681 50.7656C32.9603 50.7656 32.8622 50.7656 32.774 50.7656H32.2593C32.1319 50.7656 32.0093 50.7705 31.8916 50.7803C31.7739 50.7803 31.6612 50.79 31.5534 50.8096L31.0092 52.5234L30.0974 52.4355L30.4063 49.8281C30.5043 49.8281 30.6416 49.833 30.8181 49.8428C30.9946 49.8525 31.1857 49.8623 31.3916 49.8721C31.5974 49.8818 31.7936 49.8916 31.9799 49.9014C32.1759 49.9014 32.3378 49.9014 32.4652 49.9014H36.2153C36.3427 49.9014 36.4996 49.9014 36.6859 49.9014C36.882 49.8916 37.0829 49.8818 37.2889 49.8721C37.4948 49.8623 37.681 49.8525 37.8477 49.8428C38.0242 49.833 38.1663 49.8281 38.2741 49.8281ZM39.723 58.5L39.679 57.7676L40.4437 57.5332L43.429 50.3262L44.6496 49.6377L48.0468 57.5332L48.7969 57.7676L48.7527 58.5H44.8409L44.7821 57.7676L45.7233 57.5332L44.929 55.6436L44.7673 55.1455L43.2967 51.6738L43.7232 51.791L42.5026 55.1016L42.3555 55.541L41.6643 57.5332L42.6055 57.7676L42.5613 58.5H39.723ZM42.0173 56.0098V55.0137C42.2035 55.0234 42.4192 55.0381 42.6643 55.0576C42.9192 55.0674 43.2525 55.0723 43.6644 55.0723C44.0565 55.0723 44.3801 55.0674 44.635 55.0576C44.8997 55.0381 45.1252 55.0234 45.3114 55.0137V55.9951C45.1252 55.9951 44.8997 55.9902 44.635 55.9805C44.3702 55.9707 44.0467 55.9658 43.6644 55.9658C43.2624 55.9658 42.9339 55.9707 42.679 55.9805C42.4241 55.9902 42.2035 56 42.0173 56.0098ZM50.6575 49.9014H54.584L54.6282 50.6338L53.7017 50.8682C53.6919 50.9658 53.6772 51.1221 53.6576 51.3369C53.6478 51.542 53.638 51.7959 53.6282 52.0986C53.6282 52.3916 53.6282 52.7334 53.6282 53.124V54.6475C53.6282 55.2236 53.7066 55.707 53.8635 56.0977C54.0203 56.4785 54.2557 56.7715 54.5694 56.9766C54.8831 57.1719 55.2655 57.2695 55.7165 57.2695C56.1773 57.2695 56.5547 57.1768 56.8489 56.9912C57.143 56.7959 57.3636 56.5029 57.5107 56.1123C57.6577 55.7119 57.7312 55.2188 57.7312 54.6328V53.3877C57.7312 52.9482 57.7263 52.543 57.7166 52.1719C57.7067 51.8008 57.6969 51.498 57.6872 51.2637C57.6773 51.0293 57.6626 50.8975 57.643 50.8682L56.6135 50.6338L56.6577 49.9014H59.9225L59.9666 50.6338L59.0401 50.8682C59.0205 50.8975 59.0058 51.0293 58.996 51.2637C58.9862 51.498 58.9763 51.8008 58.9666 52.1719C58.9568 52.543 58.9518 52.9482 58.9518 53.3877V54.8818C58.9518 55.6533 58.8097 56.3223 58.5254 56.8887C58.241 57.4453 57.8341 57.875 57.3048 58.1777C56.7851 58.4805 56.1675 58.6318 55.4518 58.6318C54.2262 58.6318 53.2801 58.3096 52.6134 57.665C51.9566 57.0205 51.6281 56.1025 51.6281 54.9111V53.124C51.6281 52.7139 51.6232 52.3477 51.6135 52.0254C51.6036 51.6934 51.5938 51.4297 51.584 51.2344C51.5742 51.0293 51.5644 50.9072 51.5546 50.8682L50.6134 50.6338L50.6575 49.9014ZM62.6362 58.5L62.592 57.7676L63.5332 57.5332C63.5332 57.4746 63.5332 57.3623 63.5332 57.1963C63.543 57.0205 63.5479 56.8203 63.5479 56.5957C63.5577 56.3711 63.5626 56.1465 63.5626 55.9219C63.5724 55.6875 63.5774 55.4727 63.5774 55.2773V53.124C63.5774 52.7236 63.5724 52.3623 63.5626 52.04C63.5528 51.708 63.5381 51.4395 63.5185 51.2344C63.5087 51.0293 63.4939 50.9072 63.4743 50.8682L62.5331 50.6338L62.5773 49.9014H66.3716C67.499 49.9014 68.3324 50.082 68.8716 50.4434C69.4108 50.7949 69.6805 51.3564 69.6805 52.1279C69.6805 52.6064 69.5334 53.0361 69.2392 53.417C68.9549 53.7881 68.5529 54.0811 68.0333 54.2959C67.5235 54.5107 66.9353 54.6182 66.2685 54.6182H65.2979V53.7686H65.9744C66.4646 53.7686 66.8569 53.6221 67.1509 53.3291C67.4549 53.0264 67.6068 52.626 67.6068 52.1279C67.6068 51.6689 67.4794 51.3223 67.2245 51.0879C66.9793 50.8438 66.6166 50.7217 66.1362 50.7217H65.5773C65.5676 50.751 65.5578 50.834 65.5479 50.9707C65.5479 51.0977 65.5479 51.2686 65.5479 51.4834C65.5479 51.6982 65.5479 51.9375 65.5479 52.2012C65.5479 52.4551 65.5479 52.7236 65.5479 53.0068V55.2773C65.5479 55.5312 65.5479 55.8096 65.5479 56.1123C65.5578 56.415 65.5676 56.6982 65.5773 56.9619C65.5872 57.2158 65.597 57.4062 65.6067 57.5332L66.4304 57.7676L66.3862 58.5H62.6362ZM70.3128 58.6758C69.7638 58.6758 69.2736 58.5879 68.8422 58.4121C68.4206 58.2363 68.0382 57.9629 67.6951 57.5918C67.3618 57.2207 67.0579 56.752 66.7833 56.1855L65.9597 54.3838L67.5774 54.0029L69.3275 56.4346C69.5334 56.7178 69.7344 56.957 69.9305 57.1523C70.1364 57.3477 70.3471 57.5088 70.5629 57.6357C70.7785 57.7529 71.0089 57.8457 71.254 57.9141L71.2393 58.5879C71.0824 58.6172 70.9256 58.6367 70.7687 58.6465C70.6217 58.666 70.4697 58.6758 70.3128 58.6758ZM72.1293 58.5L72.0853 57.7676L72.85 57.5332L75.8353 50.3262L77.0559 49.6377L80.4531 57.5332L81.2031 57.7676L81.1591 58.5H77.2472L77.1883 57.7676L78.1295 57.5332L77.3354 55.6436L77.1736 55.1455L75.703 51.6738L76.1295 51.791L74.9089 55.1016L74.7618 55.541L74.0706 57.5332L75.0118 57.7676L74.9677 58.5H72.1293ZM74.4236 56.0098V55.0137C74.6098 55.0234 74.8255 55.0381 75.0706 55.0576C75.3255 55.0674 75.6588 55.0723 76.0706 55.0723C76.4628 55.0723 76.7864 55.0674 77.0413 55.0576C77.306 55.0381 77.5315 55.0234 77.7177 55.0137V55.9951C77.5315 55.9951 77.306 55.9902 77.0413 55.9805C76.7765 55.9707 76.453 55.9658 76.0706 55.9658C75.6687 55.9658 75.3403 55.9707 75.0853 55.9805C74.8304 55.9902 74.6098 56 74.4236 56.0098ZM90.314 55.79V53.5342C90.314 53.0654 90.3091 52.6357 90.2993 52.2451C90.2993 51.8545 90.2895 51.5371 90.2699 51.293C90.2601 51.0488 90.2405 50.9072 90.2111 50.8682L89.1963 50.6338L89.2405 49.9014H92.3729L92.417 50.6338L91.4758 50.8682C91.4562 50.9072 91.4366 51.0488 91.417 51.293C91.4072 51.5371 91.3974 51.8545 91.3876 52.2451C91.3778 52.6357 91.3729 53.0654 91.3729 53.5342V56.332C91.3729 56.791 91.3729 57.1963 91.3729 57.5479C91.3827 57.8896 91.3876 58.2314 91.3876 58.5732H90.4905L84.5785 51.7617L85.358 51.7471V54.6768C85.358 55.2041 85.3629 55.6729 85.3727 56.083C85.3825 56.4932 85.3923 56.8252 85.4021 57.0791C85.4218 57.3232 85.4413 57.4746 85.4609 57.5332L86.4904 57.7676L86.4463 58.5H83.2697L83.2256 57.7676L84.1521 57.5332C84.1716 57.4746 84.1864 57.3135 84.1961 57.0498C84.2158 56.7861 84.2305 56.4492 84.2403 56.0391C84.2501 55.6191 84.255 55.165 84.255 54.6768V52.7285C84.255 52.4648 84.2452 52.2012 84.2255 51.9375C84.2158 51.6641 84.201 51.4297 84.1815 51.2344C84.1716 51.0391 84.1619 50.917 84.1521 50.8682L83.2256 50.6338L83.2697 49.9014H85.5932L90.9022 55.79H90.314ZM102.939 49.8281L103.278 52.4209L102.381 52.4941L101.793 50.8096C101.694 50.79 101.587 50.7803 101.47 50.7803C101.361 50.7705 101.244 50.7656 101.116 50.7656H100.631C100.543 50.7656 100.439 50.7656 100.322 50.7656C100.214 50.7656 100.131 50.7754 100.072 50.7949C100.072 50.8535 100.067 51.0342 100.057 51.3369C100.047 51.6396 100.038 52.001 100.028 52.4209C100.028 52.8311 100.028 53.2559 100.028 53.6953V55.0576C100.028 55.6045 100.033 56.1025 100.043 56.5518C100.062 56.9912 100.077 57.3184 100.087 57.5332L101.366 57.7383L101.322 58.5H96.7484L96.7042 57.7383L97.9837 57.5332C97.9935 57.3184 98.0033 56.9912 98.0131 56.5518C98.0229 56.1025 98.0278 55.6045 98.0278 55.0576V53.6953C98.0278 53.2559 98.0229 52.8311 98.0131 52.4209C98.0131 52.001 98.0131 51.6396 98.0131 51.3369C98.0131 51.0342 98.0082 50.8535 97.9984 50.7949C97.9395 50.7754 97.8513 50.7656 97.7336 50.7656C97.6258 50.7656 97.5278 50.7656 97.4396 50.7656H96.9248C96.7973 50.7656 96.6748 50.7705 96.5572 50.7803C96.4395 50.7803 96.3268 50.79 96.2189 50.8096L95.6747 52.5234L94.7629 52.4355L95.0719 49.8281C95.1698 49.8281 95.3071 49.833 95.4836 49.8428C95.6601 49.8525 95.8512 49.8623 96.0571 49.8721C96.263 49.8818 96.4591 49.8916 96.6453 49.9014C96.8415 49.9014 97.0033 49.9014 97.1307 49.9014H100.881C101.009 49.9014 101.165 49.9014 101.351 49.9014C101.548 49.8916 101.749 49.8818 101.954 49.8721C102.16 49.8623 102.347 49.8525 102.514 49.8428C102.689 49.833 102.832 49.8281 102.939 49.8281Z" fill="white"/>
<mask id="mask0_16_28" style="mask-type:luminance" maskUnits="userSpaceOnUse" x="114" y="41" width="25" height="24">
<path d="M138.545 41H114.451V65H138.545V41Z" fill="white"/>
</mask>
<g mask="url(#mask0_16_28)">
<path d="M117.588 42.2751C116.333 43.3751 115.956 44.2251 115.956 45.9251C115.956 47.0001 116.132 47.6501 116.584 48.4501L117.186 49.5251L116.584 49.7501C115.605 50.1251 114.927 51.4251 115.003 52.7501L115.078 53.8751L116.885 53.8501H118.667L118.818 54.6001C118.893 55.0251 119.646 56.5001 120.474 57.8501C121.779 60.0001 121.98 60.5251 121.98 61.5751C121.98 62.6251 122.106 62.9251 122.834 63.6501L123.687 64.5001H126.473C129.184 64.5001 129.284 64.4751 130.037 63.8001C130.715 63.2001 130.865 62.8251 131.016 61.6001C131.166 60.4751 131.518 59.6001 132.497 57.8751C133.199 56.6251 133.902 55.2251 134.053 54.7251L134.329 53.8501H136.136L137.918 53.8751L137.993 52.7501C138.069 51.4251 137.391 50.1251 136.412 49.7501L135.81 49.5251L136.412 48.4501C137.14 47.2001 137.265 44.9001 136.688 43.7751C136.186 42.8251 134.63 41.5001 134.028 41.5001C133.651 41.5001 133.526 41.6751 133.526 42.2251C133.526 42.6251 133.626 43.2501 133.777 43.6001C134.078 44.4251 133.676 45.3501 132.848 45.7251C131.869 46.1751 130.288 46.0501 129.585 45.5001C129.033 45.0751 128.556 45.0001 126.498 45.0001C124.44 45.0001 123.963 45.0751 123.411 45.5001C122.708 46.0501 121.127 46.1751 120.148 45.7251C119.32 45.3501 118.918 44.4251 119.219 43.6001C119.37 43.2501 119.47 42.6251 119.47 42.2251C119.47 41.2501 118.768 41.2501 117.588 42.2751ZM118.918 46.0501C119.546 46.7001 119.947 46.8501 121.077 46.9501C121.855 47.0001 122.482 47.1251 122.482 47.2251C122.482 47.6751 121.554 48.6001 120.775 48.9251C119.947 49.2751 119.872 49.2501 118.993 48.5501C117.538 47.3751 116.885 46.2751 117.036 45.1751C117.111 44.6501 117.312 44.0501 117.513 43.8251C117.789 43.4751 117.864 43.5251 117.989 44.3501C118.09 44.9251 118.441 45.6001 118.918 46.0501ZM135.935 44.8751C136.136 46.0001 135.91 46.6251 134.831 47.8001C133.576 49.1751 133.199 49.3251 132.195 48.9001C131.417 48.6001 130.514 47.6751 130.514 47.2251C130.514 47.1251 131.141 47.0001 131.944 46.9501C133.174 46.8501 133.45 46.7251 134.203 45.9251C134.781 45.3001 135.032 44.7751 135.032 44.2251C135.032 43.5501 135.082 43.4751 135.408 43.7501C135.609 43.9251 135.835 44.4251 135.935 44.8751ZM129.585 47.5001C130.388 49.1251 131.016 49.6501 132.471 50.0251C133.4 50.2751 133.526 50.4001 133.526 51.0251C133.526 51.6751 133.325 51.8501 131.593 52.7251C128.958 54.0251 128.656 54.4001 128.556 56.4751C128.456 58.2251 128.782 59.3001 129.61 59.9751C130.162 60.4251 130.112 61.4001 129.51 62.0001C129.083 62.4251 128.682 62.5001 126.498 62.5001C124.314 62.5001 123.913 62.4251 123.486 62.0001C122.884 61.4001 122.834 60.4251 123.386 59.9751C124.214 59.3001 124.54 58.2251 124.44 56.4751C124.314 54.3751 123.913 53.8501 121.303 52.6251C119.646 51.8501 119.47 51.7001 119.47 51.0251C119.47 50.4251 119.596 50.3001 120.248 50.1501C121.604 49.9001 122.658 49.0501 123.26 47.8001C124.139 45.9251 124.063 45.9751 126.598 46.0501L128.882 46.1251L129.585 47.5001ZM118.291 51.0001C118.09 51.7501 117.588 52.0501 116.659 51.9501L115.831 51.8751L116.509 51.1751C117.337 50.3501 118.491 50.2251 118.291 51.0001ZM136.487 51.1751L137.165 51.8751L136.337 51.9501C135.408 52.0501 134.906 51.7501 134.705 51.0001C134.504 50.2251 135.659 50.3501 136.487 51.1751ZM120.951 53.5001C121.554 53.8001 121.98 54.2251 122.081 54.6001C122.156 54.9501 122.507 55.4251 122.859 55.6501C123.361 55.9751 123.486 56.2751 123.486 57.0501C123.486 57.6001 123.361 58.2751 123.21 58.5501C122.959 59.0251 122.884 58.9751 122.256 57.8501C121.88 57.1751 121.227 56.0501 120.801 55.3751C119.997 54.1001 119.571 53.0001 119.847 53.0001C119.922 53.0001 120.424 53.2251 120.951 53.5001ZM132.697 54.4251C132.346 55.0751 131.618 56.4001 131.066 57.3251C130.137 58.9001 130.037 59.0001 129.786 58.5501C129.635 58.2501 129.51 57.6001 129.51 57.0501C129.51 56.2751 129.635 55.9751 130.137 55.6501C130.489 55.4251 130.84 54.9501 130.915 54.6001C131.041 54.1501 131.417 53.8001 132.12 53.4751C132.672 53.2251 133.174 53.0751 133.224 53.1251C133.275 53.1501 133.024 53.7501 132.697 54.4251Z" fill="white"/>
<path d="M126.172 50.1504C126.071 50.2504 125.996 50.5754 125.996 50.8754C125.996 51.6504 125.469 52.0254 124.49 51.9504C123.461 51.8504 123.21 52.4004 124.114 52.8004C124.616 53.0254 124.967 53.0254 125.619 52.7754C126.322 52.5254 126.674 52.5254 127.376 52.7754C128.029 53.0254 128.38 53.0254 128.882 52.8004C129.811 52.3754 129.535 51.8504 128.456 51.9504C127.502 52.0254 127.1 51.7004 126.95 50.7754C126.874 50.1504 126.473 49.8504 126.172 50.1504Z" fill="white"/>
<path d="M124.088 60.3749C123.988 60.5749 124.063 60.9249 124.239 61.1249C124.691 61.6499 125.494 61.5999 125.494 61.0499C125.494 60.1499 124.365 59.6249 124.088 60.3749Z" fill="white"/>
<path d="M127.803 60.3001C127.326 60.7751 127.427 61.5001 127.979 61.5001C128.581 61.5001 129.108 60.8751 128.907 60.3751C128.732 59.9251 128.23 59.8751 127.803 60.3001Z" fill="white"/>
</g>
<path d="M152.027 58.6318C151.615 58.6318 151.158 58.5732 150.658 58.4561C150.168 58.3389 149.747 58.1826 149.394 57.9873L149.32 55.8193L150.262 55.7607L150.762 57.2695C150.957 57.3965 151.188 57.499 151.452 57.5771C151.727 57.6455 151.987 57.6797 152.232 57.6797C152.673 57.6797 153.006 57.5869 153.232 57.4014C153.467 57.2158 153.585 56.9668 153.585 56.6543C153.585 56.3125 153.482 56.0391 153.276 55.834C153.081 55.6289 152.821 55.4531 152.496 55.3066C152.173 55.1602 151.83 55.0186 151.467 54.8818C151.105 54.7354 150.762 54.5645 150.438 54.3691C150.114 54.1641 149.85 53.9053 149.644 53.5928C149.447 53.2705 149.35 52.8652 149.35 52.377C149.35 51.8496 149.497 51.3906 149.791 51C150.095 50.5996 150.517 50.292 151.056 50.0771C151.605 49.8525 152.237 49.7402 152.953 49.7402C153.178 49.7402 153.418 49.7549 153.673 49.7842C153.938 49.8135 154.193 49.8623 154.438 49.9307C154.683 49.9893 154.899 50.0576 155.086 50.1357L155.247 52.2744L154.321 52.333L153.85 50.8975C153.546 50.7412 153.198 50.6631 152.806 50.6631C152.404 50.6631 152.071 50.7656 151.806 50.9707C151.551 51.166 151.423 51.4443 151.423 51.8057C151.423 52.1279 151.527 52.3965 151.732 52.6113C151.938 52.8164 152.203 52.9971 152.527 53.1533C152.85 53.2998 153.193 53.4463 153.556 53.5928C153.928 53.7393 154.276 53.915 154.6 54.1201C154.933 54.3154 155.203 54.5645 155.409 54.8672C155.615 55.1699 155.717 55.5557 155.717 56.0244C155.717 56.5225 155.56 56.9717 155.247 57.3721C154.943 57.7627 154.511 58.0703 153.953 58.2949C153.404 58.5195 152.761 58.6318 152.027 58.6318ZM165.96 49.8281L166.299 52.4209L165.402 52.4941L164.814 50.8096C164.715 50.79 164.608 50.7803 164.491 50.7803C164.382 50.7705 164.265 50.7656 164.137 50.7656H163.652C163.564 50.7656 163.461 50.7656 163.343 50.7656C163.236 50.7656 163.152 50.7754 163.093 50.7949C163.093 50.8535 163.088 51.0342 163.078 51.3369C163.069 51.6396 163.059 52.001 163.049 52.4209C163.049 52.8311 163.049 53.2559 163.049 53.6953V55.0576C163.049 55.6045 163.054 56.1025 163.064 56.5518C163.083 56.9912 163.098 57.3184 163.108 57.5332L164.387 57.7383L164.343 58.5H159.769L159.725 57.7383L161.005 57.5332C161.015 57.3184 161.024 56.9912 161.034 56.5518C161.044 56.1025 161.049 55.6045 161.049 55.0576V53.6953C161.049 53.2559 161.044 52.8311 161.034 52.4209C161.034 52.001 161.034 51.6396 161.034 51.3369C161.034 51.0342 161.029 50.8535 161.02 50.7949C160.961 50.7754 160.872 50.7656 160.755 50.7656C160.646 50.7656 160.549 50.7656 160.461 50.7656H159.946C159.818 50.7656 159.696 50.7705 159.578 50.7803C159.461 50.7803 159.348 50.79 159.24 50.8096L158.696 52.5234L157.784 52.4355L158.093 49.8281C158.191 49.8281 158.328 49.833 158.505 49.8428C158.681 49.8525 158.872 49.8623 159.078 49.8721C159.284 49.8818 159.48 49.8916 159.667 49.9014C159.862 49.9014 160.024 49.9014 160.152 49.9014H163.902C164.03 49.9014 164.186 49.9014 164.372 49.9014C164.569 49.8916 164.77 49.8818 164.976 49.8721C165.181 49.8623 165.368 49.8525 165.535 49.8428C165.71 49.833 165.853 49.8281 165.96 49.8281ZM175.778 58.5879C175.493 58.5684 175.16 58.5488 174.777 58.5293C174.396 58.5098 174.047 58.5 173.733 58.5H168.674L168.63 57.7676L169.572 57.5332C169.591 57.4844 169.606 57.3574 169.616 57.1523C169.635 56.9473 169.65 56.6836 169.66 56.3613C169.67 56.0391 169.674 55.6777 169.674 55.2773V53.124C169.674 52.7236 169.67 52.3574 169.66 52.0254C169.65 51.6934 169.635 51.4297 169.616 51.2344C169.606 51.0293 169.591 50.9072 169.572 50.8682L168.63 50.6338L168.674 49.9014H173.204C173.4 49.9014 173.636 49.9014 173.91 49.9014C174.194 49.8916 174.469 49.8818 174.734 49.8721C175.008 49.8525 175.238 49.8379 175.425 49.8281L175.821 51.9961L174.969 52.1133L174.425 50.8242C174.287 50.7949 174.17 50.7754 174.071 50.7656C173.974 50.7559 173.866 50.751 173.748 50.751H172.631C172.444 50.751 172.263 50.7559 172.087 50.7656C171.92 50.7656 171.782 50.7754 171.675 50.7949C171.675 50.873 171.67 50.9902 171.66 51.1465C171.66 51.3027 171.655 51.5029 171.645 51.7471C171.645 51.9912 171.645 52.2744 171.645 52.5967V55.6875C171.645 56 171.645 56.2783 171.645 56.5225C171.655 56.7666 171.66 56.9717 171.66 57.1377C171.67 57.3037 171.675 57.4307 171.675 57.5186C171.851 57.5381 172.032 57.5527 172.219 57.5625C172.415 57.5723 172.66 57.5771 172.954 57.5771H173.748C173.993 57.5771 174.175 57.5771 174.292 57.5771C174.42 57.5674 174.513 57.5576 174.571 57.5479C174.641 57.5381 174.714 57.5283 174.792 57.5186L175.601 56.0537L176.44 56.2148L175.778 58.5879ZM173.896 55.5703L173.763 54.5889C173.694 54.5791 173.581 54.5742 173.425 54.5742C173.277 54.5645 173.111 54.5596 172.925 54.5596H172.145C171.969 54.5596 171.806 54.5645 171.66 54.5742C171.512 54.584 171.4 54.5938 171.322 54.6035V53.5635C171.4 53.5732 171.512 53.583 171.66 53.5928C171.806 53.6025 171.969 53.6074 172.145 53.6074H172.925C173.111 53.6074 173.277 53.6074 173.425 53.6074C173.581 53.5977 173.694 53.5928 173.763 53.5928L173.896 52.6113H174.719V55.5703H173.896ZM178.256 58.5L178.212 57.7676L178.977 57.5332L181.962 50.3262L183.182 49.6377L186.58 57.5332L187.33 57.7676L187.285 58.5H183.374L183.315 57.7676L184.256 57.5332L183.462 55.6436L183.301 55.1455L181.83 51.6738L182.256 51.791L181.036 55.1016L180.888 55.541L180.197 57.5332L181.138 57.7676L181.094 58.5H178.256ZM180.55 56.0098V55.0137C180.737 55.0234 180.952 55.0381 181.197 55.0576C181.452 55.0674 181.786 55.0723 182.197 55.0723C182.59 55.0723 182.913 55.0674 183.168 55.0576C183.432 55.0381 183.658 55.0234 183.845 55.0137V55.9951C183.658 55.9951 183.432 55.9902 183.168 55.9805C182.903 55.9707 182.58 55.9658 182.197 55.9658C181.795 55.9658 181.466 55.9707 181.211 55.9805C180.957 55.9902 180.737 56 180.55 56.0098ZM194.25 58.5L194.206 57.7676L194.97 57.6211C194.911 57.5137 194.847 57.416 194.779 57.3281C194.72 57.2305 194.622 57.0938 194.485 56.918L192.662 54.7061H192.087V54.0176L192.705 53.9004L195.735 50.7949L194.794 50.6338L194.838 49.9014H198.161L198.205 50.6631L197.235 50.8096L194 53.6953L193.97 53.0654L196.794 56.4346C197.029 56.6982 197.215 56.9131 197.352 57.0791C197.49 57.2354 197.598 57.3574 197.676 57.4453C197.755 57.5234 197.818 57.5869 197.867 57.6357L198.617 57.7529V58.5H194.25ZM189.411 58.5L189.367 57.7676L190.308 57.5332C190.327 57.4746 190.342 57.2402 190.352 56.8301C190.361 56.4102 190.366 55.8926 190.366 55.2773V53.124C190.366 52.7236 190.361 52.3623 190.352 52.04C190.342 51.708 190.327 51.4395 190.308 51.2344C190.298 51.0293 190.283 50.9072 190.264 50.8682L189.337 50.6338L189.382 49.9014H193.337L193.381 50.6338L192.441 50.8682C192.421 50.9072 192.401 51.0342 192.381 51.249C192.371 51.4541 192.362 51.7227 192.352 52.0547C192.352 52.377 192.352 52.7334 192.352 53.124V55.2773C192.352 55.8926 192.357 56.4102 192.367 56.8301C192.386 57.2402 192.402 57.4746 192.412 57.5332L193.176 57.7676L193.131 58.5H189.411ZM205.831 58.5L205.787 57.7676L206.699 57.5332C206.718 57.4844 206.733 57.3525 206.743 57.1377C206.762 56.9229 206.777 56.6543 206.787 56.332C206.796 56.0098 206.801 55.6582 206.801 55.2773V53.124C206.801 52.7334 206.796 52.377 206.787 52.0547C206.777 51.7227 206.762 51.4541 206.743 51.249C206.733 51.0342 206.718 50.9023 206.699 50.8535L205.787 50.6338L205.831 49.9014H209.772L209.816 50.6338L208.889 50.8535C208.88 50.9023 208.865 51.0391 208.845 51.2637C208.826 51.4883 208.811 51.7666 208.801 52.0986C208.792 52.4307 208.787 52.7725 208.787 53.124V55.2773C208.787 55.6191 208.792 55.9561 208.801 56.2881C208.811 56.6104 208.826 56.8887 208.845 57.123C208.865 57.3477 208.88 57.4844 208.889 57.5332L209.816 57.7676L209.772 58.5H205.831ZM200.566 58.5L200.521 57.7676L201.448 57.5332C201.468 57.4844 201.482 57.3574 201.492 57.1523C201.512 56.9473 201.526 56.6836 201.536 56.3613C201.547 56.0293 201.552 55.668 201.552 55.2773V53.124C201.552 52.7236 201.547 52.3574 201.536 52.0254C201.526 51.6934 201.512 51.4248 201.492 51.2197C201.482 51.0049 201.468 50.8828 201.448 50.8535L200.521 50.6338L200.566 49.9014H204.493L204.536 50.6338L203.625 50.8535C203.606 50.9023 203.586 51.0342 203.566 51.249C203.556 51.4541 203.546 51.7227 203.536 52.0547C203.536 52.377 203.536 52.7334 203.536 53.124V55.2773C203.536 55.6582 203.536 56.0098 203.536 56.332C203.546 56.6543 203.556 56.9229 203.566 57.1377C203.586 57.3525 203.606 57.4844 203.625 57.5332L204.536 57.7676L204.493 58.5H200.566ZM203.198 54.6621V53.5488C203.434 53.5781 203.703 53.5977 204.007 53.6074C204.321 53.6172 204.708 53.6221 205.169 53.6221C205.63 53.6221 206.012 53.6172 206.316 53.6074C206.62 53.5977 206.89 53.5781 207.125 53.5488V54.6621C206.919 54.6523 206.665 54.6426 206.36 54.6328C206.056 54.6133 205.66 54.6035 205.169 54.6035C204.679 54.6035 204.277 54.6133 203.963 54.6328C203.659 54.6426 203.405 54.6523 203.198 54.6621ZM217.206 58.6318C216.305 58.6318 215.5 58.4463 214.795 58.0752C214.099 57.7041 213.55 57.1963 213.147 56.5518C212.756 55.8975 212.559 55.1504 212.559 54.3105C212.559 53.4316 212.756 52.6504 213.147 51.9668C213.55 51.2832 214.104 50.7461 214.81 50.3555C215.516 49.9648 216.315 49.7695 217.206 49.7695C218.089 49.7695 218.864 49.9551 219.53 50.3262C220.197 50.6875 220.716 51.1904 221.089 51.835C221.471 52.4795 221.663 53.2314 221.663 54.0908C221.663 54.8428 221.525 55.502 221.251 56.0684C220.976 56.6348 220.614 57.1084 220.163 57.4893C219.721 57.8701 219.241 58.1582 218.721 58.3535C218.202 58.5391 217.697 58.6318 217.206 58.6318ZM217.31 57.5479C217.77 57.5479 218.153 57.4307 218.456 57.1963C218.76 56.9521 218.986 56.6006 219.133 56.1416C219.29 55.6729 219.369 55.1113 219.369 54.457C219.369 53.7051 219.27 53.0508 219.075 52.4941C218.888 51.9375 218.619 51.5078 218.265 51.2051C217.922 50.8926 217.51 50.7363 217.03 50.7363C216.364 50.7363 215.839 51.0146 215.456 51.5713C215.074 52.1279 214.883 52.8994 214.883 53.8857C214.883 54.6084 214.985 55.2432 215.192 55.79C215.398 56.3369 215.682 56.7666 216.045 57.0791C216.417 57.3916 216.839 57.5479 217.31 57.5479ZM224.421 49.9014H228.347L228.391 50.6338L227.465 50.8682C227.455 50.9658 227.44 51.1221 227.42 51.3369C227.41 51.542 227.4 51.7959 227.391 52.0986C227.391 52.3916 227.391 52.7334 227.391 53.124V54.6475C227.391 55.2236 227.47 55.707 227.626 56.0977C227.783 56.4785 228.019 56.7715 228.332 56.9766C228.646 57.1719 229.029 57.2695 229.479 57.2695C229.94 57.2695 230.318 57.1768 230.612 56.9912C230.906 56.7959 231.126 56.5029 231.274 56.1123C231.42 55.7119 231.494 55.2188 231.494 54.6328V53.3877C231.494 52.9482 231.489 52.543 231.479 52.1719C231.469 51.8008 231.459 51.498 231.45 51.2637C231.44 51.0293 231.425 50.8975 231.406 50.8682L230.376 50.6338L230.42 49.9014H233.685L233.729 50.6338L232.803 50.8682C232.783 50.8975 232.768 51.0293 232.758 51.2637C232.749 51.498 232.739 51.8008 232.729 52.1719C232.719 52.543 232.714 52.9482 232.714 53.3877V54.8818C232.714 55.6533 232.573 56.3223 232.289 56.8887C232.003 57.4453 231.597 57.875 231.068 58.1777C230.548 58.4805 229.93 58.6318 229.214 58.6318C227.989 58.6318 227.043 58.3096 226.376 57.665C225.72 57.0205 225.391 56.1025 225.391 54.9111V53.124C225.391 52.7139 225.386 52.3477 225.376 52.0254C225.366 51.6934 225.356 51.4297 225.347 51.2344C225.337 51.0293 225.327 50.9072 225.317 50.8682L224.376 50.6338L224.421 49.9014ZM239.223 58.6318C238.811 58.6318 238.354 58.5732 237.854 58.4561C237.365 58.3389 236.943 58.1826 236.59 57.9873L236.516 55.8193L237.458 55.7607L237.958 57.2695C238.154 57.3965 238.385 57.499 238.649 57.5771C238.924 57.6455 239.184 57.6797 239.429 57.6797C239.869 57.6797 240.203 57.5869 240.429 57.4014C240.664 57.2158 240.781 56.9668 240.781 56.6543C240.781 56.3125 240.679 56.0391 240.473 55.834C240.276 55.6289 240.017 55.4531 239.693 55.3066C239.369 55.1602 239.026 55.0186 238.664 54.8818C238.301 54.7354 237.958 54.5645 237.635 54.3691C237.31 54.1641 237.046 53.9053 236.84 53.5928C236.644 53.2705 236.546 52.8652 236.546 52.377C236.546 51.8496 236.693 51.3906 236.987 51C237.291 50.5996 237.713 50.292 238.252 50.0771C238.801 49.8525 239.434 49.7402 240.149 49.7402C240.374 49.7402 240.614 49.7549 240.869 49.7842C241.134 49.8135 241.389 49.8623 241.634 49.9307C241.879 49.9893 242.095 50.0576 242.282 50.1357L242.444 52.2744L241.517 52.333L241.046 50.8975C240.742 50.7412 240.394 50.6631 240.002 50.6631C239.6 50.6631 239.267 50.7656 239.002 50.9707C238.747 51.166 238.619 51.4443 238.619 51.8057C238.619 52.1279 238.723 52.3965 238.929 52.6113C239.135 52.8164 239.399 52.9971 239.723 53.1533C240.046 53.2998 240.389 53.4463 240.752 53.5928C241.124 53.7393 241.473 53.915 241.796 54.1201C242.129 54.3154 242.399 54.5645 242.605 54.8672C242.811 55.1699 242.913 55.5557 242.913 56.0244C242.913 56.5225 242.757 56.9717 242.444 57.3721C242.139 57.7627 241.708 58.0703 241.149 58.2949C240.6 58.5195 239.958 58.6318 239.223 58.6318ZM252.539 58.5879C252.255 58.5684 251.922 58.5488 251.539 58.5293C251.157 58.5098 250.808 58.5 250.495 58.5H245.436L245.392 57.7676L246.333 57.5332C246.353 57.4844 246.368 57.3574 246.377 57.1523C246.397 56.9473 246.412 56.6836 246.421 56.3613C246.431 56.0391 246.436 55.6777 246.436 55.2773V53.124C246.436 52.7236 246.431 52.3574 246.421 52.0254C246.412 51.6934 246.397 51.4297 246.377 51.2344C246.368 51.0293 246.353 50.9072 246.333 50.8682L245.392 50.6338L245.436 49.9014H249.966C250.162 49.9014 250.397 49.9014 250.672 49.9014C250.956 49.8916 251.23 49.8818 251.495 49.8721C251.77 49.8525 252 49.8379 252.187 49.8281L252.583 51.9961L251.73 52.1133L251.186 50.8242C251.049 50.7949 250.932 50.7754 250.834 50.7656C250.735 50.7559 250.628 50.751 250.51 50.751H249.392C249.206 50.751 249.024 50.7559 248.848 50.7656C248.681 50.7656 248.545 50.7754 248.436 50.7949C248.436 50.873 248.431 50.9902 248.422 51.1465C248.422 51.3027 248.417 51.5029 248.407 51.7471C248.407 51.9912 248.407 52.2744 248.407 52.5967V55.6875C248.407 56 248.407 56.2783 248.407 56.5225C248.417 56.7666 248.422 56.9717 248.422 57.1377C248.431 57.3037 248.436 57.4307 248.436 57.5186C248.613 57.5381 248.795 57.5527 248.98 57.5625C249.177 57.5723 249.422 57.5771 249.716 57.5771H250.51C250.755 57.5771 250.936 57.5771 251.054 57.5771C251.182 57.5674 251.274 57.5576 251.334 57.5479C251.402 57.5381 251.476 57.5283 251.554 57.5186L252.363 56.0537L253.201 56.2148L252.539 58.5879ZM250.657 55.5703L250.524 54.5889C250.456 54.5791 250.344 54.5742 250.186 54.5742C250.039 54.5645 249.873 54.5596 249.686 54.5596H248.907C248.73 54.5596 248.569 54.5645 248.422 54.5742C248.274 54.584 248.162 54.5938 248.084 54.6035V53.5635C248.162 53.5732 248.274 53.583 248.422 53.5928C248.569 53.6025 248.73 53.6074 248.907 53.6074H249.686C249.873 53.6074 250.039 53.6074 250.186 53.6074C250.344 53.5977 250.456 53.5928 250.524 53.5928L250.657 52.6113H251.48V55.5703H250.657Z" fill="white"/>
</g>
<defs>
<clipPath id="clip0_16_28">
<rect width="254" height="65" fill="white"/>
</clipPath>
</defs>
</svg>
