<svg width="172" height="108" viewBox="0 0 172 108" fill="none" xmlns="http://www.w3.org/2000/svg">
<path d="M29.7827 75.2662C32.9058 75.3255 36.0279 75.1049 39.112 74.6068C41.1537 74.2754 43.1734 73.7951 45.0804 72.9891C45.6822 72.7347 46.0798 72.484 46.6032 73.0518C47.0207 73.5048 46.8824 73.8107 46.483 74.1348C45.1777 75.1941 43.689 76.0023 42.0918 76.519C41.1439 76.8139 40.1764 77.0411 39.1966 77.1989C36.2312 77.7218 33.2339 78.0726 30.2046 77.858C29.5427 77.8111 28.8768 77.8228 28.2129 77.8046C26.3574 77.7537 24.572 77.2622 22.8166 76.7534C21.6946 76.4283 20.5368 76.0597 19.5804 75.2498C19.0259 74.7803 18.3081 74.4956 17.6428 74.1711C17.4374 74.0558 17.1958 74.0237 16.9676 74.0814C16.7394 74.139 16.5417 74.2821 16.415 74.4814C15.1916 76.1393 13.8065 77.6637 12.5805 79.3291C11.3362 81.0191 10.3304 82.8497 9.10595 84.5412C8.67741 85.1161 8.13494 85.5956 7.51276 85.9494C7.06942 86.2146 6.6297 86.0473 6.21746 85.7827C5.82568 85.5312 5.77968 85.1939 5.88827 84.7795C6.26313 83.3489 7.01586 82.1117 7.79663 80.8787C8.5012 79.7661 9.06542 78.5652 9.89066 77.527C10.9567 76.1859 12.0134 74.8373 13.0788 73.4957C13.5243 72.9347 13.987 72.3872 14.4324 71.826C14.73 71.451 14.7337 71.0196 14.6184 70.5785C13.6767 66.9765 16.056 63.7707 18.336 62.1418C20.3544 60.7143 22.4957 59.4708 24.7345 58.4264C25.6106 58.0119 26.2399 57.2436 26.6946 56.4263C27.4937 54.9898 28.6407 53.7828 29.3419 52.2958C30.0713 50.7491 30.9067 49.2445 31.3566 47.5773C31.411 47.3755 31.6004 47.11 31.3203 46.9585C31.0806 46.8289 30.882 47.0266 30.7244 47.197C29.6716 48.335 28.632 49.4853 27.5717 50.6161C26.8247 51.4129 26.1106 52.2568 25.2749 52.9496C24.3533 53.7136 23.657 54.702 22.5994 55.3426C21.1537 56.2182 19.6237 55.032 19.4564 53.811C19.4176 53.6176 19.4423 53.4168 19.5266 53.2387C19.611 53.0606 19.7506 52.9148 19.9244 52.8231C21.4123 52.1112 22.3836 50.8475 23.3161 49.5826C24.2247 48.3502 25.3727 47.3846 26.4655 46.3521C27.9866 44.915 29.4767 43.4387 31.0712 42.0877C32.588 40.8026 34.2298 39.6671 35.8018 38.4465C37.0081 37.5098 38.1742 36.5205 39.3883 35.5945C41.4974 33.9859 43.6483 32.4307 45.7631 30.833C47.739 29.3402 49.7602 27.9196 51.8268 26.5711C53.1446 25.6952 54.5253 24.9186 55.9574 24.2478C57.662 23.4713 59.3335 22.6037 61.104 22.0038C62.379 21.5718 63.5763 20.9581 64.89 20.5969C66.1006 20.2641 67.2991 19.8076 68.4973 19.3907C69.9083 18.8998 71.3717 18.5584 72.7738 18.0455C74.2335 17.5116 75.7719 17.2896 77.2357 16.7686C78.2365 16.4124 79.3079 16.2422 80.3584 16.0463C81.1651 15.8959 81.9089 15.5585 82.7166 15.3924C86.0707 14.7025 89.4505 14.2451 92.8514 13.8527C95.2395 13.594 97.6516 13.6668 100.02 14.069C102.178 14.4167 104.091 15.3791 105.561 17.1734C107.268 19.2582 107.861 21.6471 107.976 24.2533C108.078 26.5866 107.083 28.4547 105.802 30.3074C104.484 32.2129 102.692 33.4639 100.842 34.743C98.2578 36.5114 95.5035 38.0151 92.6205 39.2314C91.1183 39.874 89.5839 40.5215 88.0474 41.1147C85.3874 42.1419 82.6474 42.9463 80.024 44.0578C77.6886 45.0475 75.2023 45.4761 72.7927 46.1869C70.5983 46.8342 68.4212 47.5501 66.2052 48.1109C64.8297 48.459 63.4666 48.8604 62.073 49.154C60.3586 49.5153 58.6461 49.9084 57.0136 50.6177C56.2621 50.9441 55.3937 51.023 54.591 51.2742C51.8641 52.1275 49.0969 52.8439 46.4047 53.8194C45.0927 54.2948 43.6908 54.5134 42.3565 54.9344C40.661 55.4693 38.97 56.0214 37.2888 56.6053C35.6867 57.1617 34.06 57.6813 32.4602 58.2435C30.5975 58.8981 28.6228 59.5407 27.2934 61.1073C26.1919 62.4053 25.0825 63.7121 24.1116 65.1269C23.054 66.6682 21.7285 67.9955 20.5347 69.4287C20.0778 69.9773 19.5779 70.4896 19.1124 71.0314C18.7542 71.4484 18.698 71.9008 19.219 72.2041C21.0945 73.296 22.8498 74.5266 25.1598 74.8004C26.9084 75.0076 28.6486 75.213 29.7827 75.2662ZM105.065 22.8306C105.171 21.8808 104.587 20.924 104.347 19.8859C104.125 18.9267 103.513 18.2698 102.846 17.7516C101.059 16.3652 98.8552 16.1405 96.7327 16.2263C93.7588 16.3464 90.7777 16.4664 87.8164 16.9952C85.6331 17.3851 83.4731 17.8916 81.2897 18.2785C80.4747 18.423 79.6127 18.5002 78.8309 18.8159C77.2419 19.4575 75.5377 19.6793 73.9251 20.2246C73.1532 20.4856 72.3281 20.5947 71.5862 20.8942C70.2405 21.4375 68.8282 21.7605 67.4809 22.2993C65.7537 22.99 63.9402 23.4647 62.2199 24.1703C59.9436 25.104 57.6415 25.9604 55.5216 27.2928C54.3326 28.0401 53.0633 28.7047 51.9667 29.5726C50.3671 30.8386 48.607 31.8679 47.0306 33.1661C45.3548 34.5462 43.5663 35.787 41.8599 37.1308C40.217 38.4247 38.6091 39.764 37.0002 41.1009C36.3946 41.6041 35.8264 42.1227 35.4931 42.8999C35.2645 43.433 35.4406 43.9114 35.4079 44.4091C35.2386 46.9822 34.4758 49.3829 33.4443 51.7211C32.9486 52.8085 32.3663 53.8539 31.7032 54.8472C31.5554 55.0748 31.2138 55.2257 31.4454 55.5459C31.6446 55.8215 31.9535 55.688 32.2278 55.6376C32.866 55.5204 33.3696 55.0942 33.9827 54.8903C34.7826 54.6244 35.6154 54.511 36.4094 54.2108C37.7413 53.6946 39.1032 53.2604 40.4877 52.9106C42.5185 52.4158 44.4556 51.6196 46.5097 51.1854C48.1489 50.8389 49.7144 50.1546 51.334 49.6966C53.1666 49.1783 54.9942 48.6349 56.8179 48.0938C58.3442 47.6409 59.8942 47.2585 61.4089 46.7444C62.8749 46.2469 64.3834 45.8517 65.8713 45.4036C66.7203 45.148 67.579 44.8415 68.431 44.6876C70.1329 44.3801 71.693 43.6695 73.3368 43.21C75.0993 42.7174 76.8317 42.1063 78.5702 41.5279C80.4089 40.9162 82.2183 40.2329 84.0402 39.5805C86.2985 38.7719 88.4576 37.7167 90.6831 36.8343C92.2849 36.1993 93.7398 35.3095 95.2659 34.5485C96.887 33.7401 98.3867 32.7119 99.8922 31.6933C101.623 30.5219 102.975 28.9784 104.071 27.2801C104.857 26.0618 105.087 24.5142 105.065 22.8306ZM17.3103 67.915C17.7114 67.7141 18.0678 67.4336 18.3579 67.0904C18.6479 66.7471 18.8656 66.3483 18.9978 65.918C18.4353 66.5837 17.8728 67.2493 17.3103 67.915Z" fill="#1E1E1E"/>
<path d="M44.5839 68.3319C44.8186 66.2586 45.7973 65.0333 46.9377 63.9257C47.7932 63.0948 48.8079 62.463 49.7836 61.7776C51.4007 60.6419 53.4047 61.2068 54.458 62.578C54.7032 62.8972 54.8924 63.1205 55.3215 63.0092C56.677 62.6574 58.0613 62.4239 59.3529 61.8292C59.9534 61.5492 60.5327 61.2254 61.0862 60.8605C61.8697 60.3493 62.6048 60.5994 63.2587 60.9527C63.8675 61.2817 64.2316 61.8449 64.0933 62.6857C63.9039 63.8368 64.2248 64.0716 65.422 63.9721C66.203 63.9072 66.8012 63.4725 67.4352 63.0943C68.3834 62.5286 69.1216 62.5531 69.9233 63.17C70.5123 63.6232 70.8992 64.8336 70.6234 65.6003C69.8097 67.8622 68.8112 70.0144 67.4583 72.0342C66.7033 73.1614 65.9106 74.2937 65.2553 75.5137C64.6892 76.5678 63.7834 77.4641 63.287 78.5808C62.3686 80.647 60.9272 82.3774 59.7144 84.2469C58.8145 85.634 57.9732 87.0651 57.0303 88.4312C55.966 89.9731 55.0802 91.6501 54.2163 93.3326C53.7044 94.3295 53.433 95.4422 52.7891 96.3518C52.31 97.0287 52.3162 97.8381 52.0167 98.5616C51.8072 99.068 51.6264 99.4327 51.1122 99.555C50.5193 99.6959 50.1041 99.3095 49.8223 98.9003C49.5458 98.5162 49.3654 98.0709 49.2964 97.602C49.2274 97.1331 49.2718 96.6544 49.4258 96.2063C50.3097 93.3059 51.8389 90.7357 53.2944 88.1133C54.2975 86.3059 55.3484 84.5302 56.4992 82.8231C57.5405 81.2785 58.5526 79.7132 59.4811 78.1057C60.0358 77.1455 60.6005 76.1522 61.2175 75.2695C62.3311 73.6763 63.2189 71.9463 64.3613 70.3781C64.8907 69.6311 65.3811 68.8569 65.8304 68.0586C66.1704 67.4722 65.9788 67.1054 65.3186 67.0535C63.6353 66.9211 62.1463 66.3709 60.9476 65.1315C60.5711 64.7422 60.1109 64.7872 59.6637 64.975C57.9087 65.7119 56.0573 66.0282 54.1861 66.2569C54.0863 66.2624 53.9889 66.2897 53.9007 66.337C53.8125 66.3842 53.7357 66.4503 53.6756 66.5305C52.497 68.0527 51.0276 69.323 49.3536 70.2667C48.8618 70.546 48.314 70.7113 47.7503 70.7506C47.1867 70.7899 46.6215 70.7022 46.0959 70.4939C45.3797 70.2271 44.3961 69.1674 44.5839 68.3319ZM48.7165 66.735C48.6825 67.1096 48.906 67.2984 49.2048 67.0905C49.538 66.8265 49.8259 66.5095 50.0572 66.1521C50.1403 66.0377 50.1096 65.8047 50.0663 65.6435C50.0309 65.5117 49.8609 65.5218 49.7354 65.5369C49.3668 65.5812 48.7054 66.3521 48.7165 66.735Z" fill="#1E1E1E"/>
<path d="M116.299 48.1721C115 48.217 114.297 47.245 113.626 46.3283C113.253 45.8182 114.087 44.8272 114.758 45.036C115.826 45.3689 116.428 44.8861 117.149 44.1905C119.148 42.2621 120.825 40.0667 122.517 37.8874C124.356 35.5 125.952 32.9333 127.281 30.226C127.731 29.3192 128.306 28.4385 128.72 27.5225C129.172 26.5232 129.783 25.6158 130.197 24.6066C130.264 24.4442 130.47 24.2254 130.219 24.0631C130.023 23.937 129.83 24.0626 129.657 24.1878C129.059 24.6224 128.563 25.1774 128.011 25.6636C125.591 27.7914 123.299 30.0663 120.848 32.1557C119.096 33.65 117.595 35.4195 115.791 36.8258C114.088 38.1542 112.581 39.6793 111.006 41.133C109.534 42.4923 107.933 43.7139 106.649 45.2899C105.88 46.2337 104.854 46.9428 104.024 47.8612C103.099 48.8836 102.26 49.9812 101.295 50.9697C99.9412 52.356 98.6592 53.8129 97.3138 55.2078C96.8973 55.6396 96.7372 56.2022 96.3696 56.6696C94.5356 59.023 92.8382 61.4807 91.2858 64.0305C90.1114 65.9402 89.0914 67.938 87.8583 69.8159C87.0669 71.0212 86.5838 72.4271 85.8363 73.6662C84.9574 75.1231 84.3119 76.6988 83.3843 78.1386C82.77 79.0921 82.4159 80.2559 81.9665 81.3336C81.6519 82.088 81.3885 82.8753 80.9382 83.5987C80.3573 84.5321 79.9965 85.6099 79.5935 86.6462C79.4288 87.1315 79.3112 87.6316 79.2423 88.1397C79.1236 88.8052 78.7093 89.2567 78.0961 89.3091C77.4548 89.3639 77.0395 88.8412 76.7826 88.2953C76.6699 88.0495 76.6122 87.7818 76.6136 87.5111C76.615 87.2404 76.6756 86.9733 76.7909 86.7287C77.295 85.5283 77.7196 84.2942 78.1703 83.0741C78.7417 81.527 79.3311 79.989 80.0449 78.5083C81.1865 76.1405 82.4432 73.8314 83.686 71.5143C85.1836 68.7221 86.86 66.0446 88.5142 63.3529C89.7292 61.3759 91.0568 59.4653 92.3998 57.572C94.0957 55.1812 95.9757 52.9312 97.7934 50.6332C99.6372 48.3023 101.699 46.1858 103.728 44.0286C104.612 43.0882 105.503 42.131 106.42 41.2413C107.86 39.8432 109.391 38.5252 110.87 37.1582C112.67 35.4941 114.418 33.7731 116.243 32.1374C118.753 29.8879 121.181 27.55 123.733 25.346C125.222 24.0604 126.708 22.769 128.133 21.4045C129.647 19.9545 131.263 18.6084 132.872 17.2626C134.481 15.9164 136.102 14.5851 137.651 13.1679C138.559 12.3379 138.829 12.396 139.993 13.5358C140.45 13.9823 140.372 14.8946 139.798 15.4681C138.985 16.2803 138.124 17.0457 137.334 17.8791C136.163 19.0765 135.193 20.4571 134.463 21.9669C134.101 22.7404 133.425 23.341 133.107 24.1653C132.474 25.8102 131.519 27.302 130.87 28.9468C130.427 30.0712 129.749 31.1 129.236 32.1997C128.579 33.6075 127.833 34.965 127.043 36.2978C126.228 37.675 125.474 39.0998 124.352 40.2678C123.806 40.8358 123.672 41.6361 123.188 42.248C122.077 43.6725 120.861 45.0103 119.549 46.2499C118.872 46.9099 118.114 47.4799 117.292 47.9458C116.994 48.1261 116.646 48.2054 116.299 48.1721Z" fill="#1E1E1E"/>
<path d="M112.033 56.8621C113.917 57.0023 115.448 58.4689 115.837 60.2861C116.146 61.7271 116.273 63.1362 115.834 64.5553C115.691 65.0163 115.38 65.4254 115.413 65.9401C115.422 66.0839 115.348 66.2692 115.536 66.3448C115.751 66.4315 115.851 66.267 115.961 66.1178C116.616 65.2362 117.15 64.2791 117.715 63.3401C118.817 61.5069 120.064 59.7713 121.253 57.9961C122.732 55.7896 124.931 54.491 127.008 53.0246C127.933 52.3719 128.526 52.4452 129.421 53.1552C129.804 53.4551 130.151 53.7978 130.457 54.1769C130.882 54.7087 130.986 55.2595 130.942 55.9587C130.864 57.2341 130.672 58.4876 130.498 59.7474C130.467 59.9705 130.325 60.1121 130.225 60.2871C130.1 60.5039 129.885 60.7503 130.16 60.9673C130.402 61.1582 130.643 60.984 130.847 60.8155C131.694 60.1142 132.407 59.366 132.863 58.2845C133.488 56.7561 134.494 55.4148 135.784 54.3894C136.32 53.9695 136.8 53.4847 137.333 53.0583C138.434 52.1777 140.332 53.3703 140.735 54.3083C140.769 54.3788 140.784 54.4569 140.779 54.535C140.773 54.6131 140.748 54.6884 140.705 54.7536C140.289 55.333 140.107 56.0466 139.592 56.5763C138.544 57.6532 137.741 58.9476 136.633 59.9746C136.436 60.1572 136.31 60.4107 136.457 60.6678C136.61 60.9334 136.903 60.8821 137.153 60.8463C137.717 60.7655 138.192 60.5026 138.672 60.1858C140.162 59.2025 141.724 58.2885 142.892 56.9258C143.791 55.8763 144.725 54.8619 145.71 53.9071C147.274 52.391 149.007 51.0843 151.018 50.1907C152.97 49.3231 155.049 49.0368 157.129 48.6638C158.33 48.4483 159.514 48.2195 160.736 48.1238C163.669 47.8938 165.709 50.2737 164.97 53.2225C164.551 54.8955 163.637 56.3181 162.827 57.7822C161.968 59.336 160.928 60.7919 159.92 62.258C159.227 63.2651 158.452 64.2151 157.718 65.1934C156.724 66.517 155.716 67.8343 154.673 69.1133C153.841 70.1347 153.123 71.2497 152.124 72.1662C151.2 73.0139 150.592 74.199 149.783 75.1851C148.691 76.5168 147.801 77.9915 146.709 79.3306C145.126 81.2705 143.339 83.0409 141.935 85.1329C141.585 85.6548 141.058 86.0582 140.601 86.5057C140.388 86.7154 140.134 86.675 139.888 86.5547C139.794 86.5113 139.718 86.4358 139.674 86.3415C139.63 86.2473 139.62 86.1404 139.647 86.0399C139.731 85.4808 139.832 84.9298 140.135 84.4351C141.294 82.5418 142.389 80.6052 143.626 78.7653C144.287 77.7828 144.957 76.7964 145.691 75.856C146.707 74.5567 147.684 73.2206 148.635 71.875C149.198 71.0784 149.805 70.2869 150.263 69.4058C150.772 68.4239 151.571 67.648 152.206 66.7536C153.45 65.002 154.731 63.2764 155.997 61.5408C156.894 60.3114 157.856 59.1236 158.674 57.8435C159.566 56.449 160.333 54.9738 161.134 53.522C161.248 53.2942 161.384 53.0783 161.541 52.8777C161.674 52.7346 161.755 52.5509 161.771 52.356C161.787 52.1611 161.738 51.9663 161.631 51.8029C161.545 51.6403 161.406 51.5119 161.238 51.4385C161.069 51.3652 160.881 51.3512 160.704 51.3989C159.207 51.8228 157.642 51.8286 156.132 52.2487C155.014 52.5599 153.835 52.6745 152.746 53.1309C150.357 54.1317 148.497 55.8226 146.746 57.683C145.398 59.114 144.164 60.6733 142.554 61.8333C141.057 62.9127 139.458 63.8527 137.636 64.2113C137.055 64.3358 136.452 64.3091 135.885 64.1339C135.317 63.9586 134.804 63.6406 134.393 63.21C133.863 62.6659 133.516 62.7797 132.984 63.2201C131.334 64.5846 129.642 65.9078 127.661 66.771C126.589 67.2384 125.483 67.6268 124.399 68.0678C123.47 68.4455 122.649 68.2174 121.888 67.6516C121.388 67.2803 120.946 67.3087 120.544 67.7843C119.489 69.0307 118.436 70.2687 117.242 71.3963C115.651 72.8741 114.221 74.5182 112.978 76.3007C112.617 76.8263 112.185 77.3015 111.805 77.8149C110.847 79.112 109.046 78.6836 108.36 77.3058C108.082 76.7487 108.494 76.3575 108.775 76.0037C109.854 74.6476 111.094 73.406 112.053 71.9724C112.898 70.7076 113.927 69.5874 114.727 68.2961C114.868 68.0675 114.898 67.8463 114.709 67.667C114.511 67.4789 114.322 67.632 114.184 67.7892C113.391 68.6917 112.53 69.5463 111.833 70.519C110.657 72.1596 107.687 73.2672 105.755 71.4816C105.502 71.2261 105.31 70.917 105.192 70.577C104.914 69.8923 104.596 69.7943 104.058 70.2651C102.536 71.5705 100.929 72.7724 99.2475 73.8627C98.1928 74.5614 96.9922 75.1779 95.591 74.591C94.5438 74.1524 93.859 72.9177 94.192 71.8764C94.9774 69.42 96.2345 67.2433 97.8243 65.2102C98.2882 64.617 98.5724 63.839 99.2219 63.3904C100.599 62.4391 101.964 61.4455 103.51 60.7901C104.368 60.4263 105.749 61.0719 106.211 61.8984C106.707 62.7859 106.944 62.8444 107.719 62.2141C108.055 61.9409 108.353 61.6192 108.663 61.3155C108.788 61.1936 108.983 61.0705 108.875 60.8697C108.764 60.6615 108.553 60.7893 108.392 60.8197C107.677 60.9545 107.032 60.8904 106.498 60.3125C106.212 60.002 106.212 59.7767 106.513 59.4684C107.357 58.6076 108.384 57.9506 109.518 57.547C110.348 57.2425 111.11 56.6891 112.033 56.8621ZM126.944 56.9435C126.69 56.9766 126.433 57.0121 126.236 57.1965C124.542 58.7889 123.097 60.5972 121.743 62.4813C121.504 62.8131 121.255 63.1724 121.632 63.5855C121.984 63.9724 123.193 64.4296 123.477 64.2327C123.9 63.9496 124.298 63.6309 124.667 63.28C125.326 62.6323 125.729 61.8178 126.176 61.0088C126.811 59.8626 127.274 58.6999 127.453 57.4124C127.509 57.0136 127.277 56.9231 126.944 56.9435ZM104.409 64.2223C104.428 63.3593 104.058 63.1424 103.499 63.4039C102.772 63.7445 102.489 64.4387 102.04 65.039C101.304 66.0219 100.349 66.8387 99.6527 67.8866C99.0051 68.8611 98.2412 69.7573 97.5361 70.6939C97.3942 70.8825 97.282 71.1216 97.4936 71.3169C97.6737 71.4833 97.879 71.3626 98.0491 71.2384C98.3586 71.0123 98.6499 70.7581 98.9729 70.5542C100.764 69.4235 102.314 68.0251 103.502 66.2668C103.965 65.5817 104.478 64.8675 104.409 64.2223ZM112.923 63.0443C112.934 62.4761 112.92 62.4054 112.707 62.302C112.592 62.2426 112.462 62.217 112.333 62.228C112.205 62.239 112.081 62.2861 111.978 62.3641C110.385 63.5206 108.904 64.791 108.092 66.6505C107.882 67.1312 107.719 67.6646 107.799 68.2182C107.915 69.0192 108.316 69.1968 108.939 68.7017C110.355 67.5653 111.516 66.1419 112.347 64.5244C112.595 64.0527 113.069 63.6166 112.923 63.0443Z" fill="#1E1E1E"/>
</svg>
